<svg width="24" height="24" viewBox="0 0 24 24" fill="none" xmlns="http://www.w3.org/2000/svg">
<path d="M7.49826 2.99622V5.99747" stroke="#6B7280" stroke-width="1.5" stroke-linecap="round" stroke-linejoin="round"/>
<path d="M16.5019 2.99622V5.99747" stroke="#6B7280" stroke-width="1.5" stroke-linecap="round" stroke-linejoin="round"/>
<rect x="2.99634" y="4.49683" width="18.0075" height="16.5069" rx="3" stroke="#6B7280" stroke-width="1.5" stroke-linecap="round" stroke-linejoin="round"/>
<path d="M7.49829 16.0017H13.0006" stroke="#6B7280" stroke-width="1.5" stroke-linecap="round" stroke-linejoin="round"/>
<path d="M16.3769 16.1267C16.446 16.1267 16.502 16.0707 16.502 16.0017C16.502 15.9326 16.446 15.8766 16.3769 15.8766C16.3079 15.8766 16.2519 15.9326 16.2519 16.0017C16.2519 16.0707 16.3079 16.1267 16.3769 16.1267" stroke="#6B7280" stroke-width="1.5" stroke-linecap="round" stroke-linejoin="round"/>
<path d="M16.5021 12H10.8748" stroke="#6B7280" stroke-width="1.5" stroke-linecap="round" stroke-linejoin="round"/>
<path d="M7.62326 11.8749C7.55419 11.8749 7.4982 11.9309 7.4982 12C7.4982 12.069 7.55419 12.125 7.62326 12.125C7.69232 12.125 7.74831 12.069 7.74831 12C7.74831 11.9309 7.69232 11.8749 7.62326 11.8749" stroke="#6B7280" stroke-width="1.5" stroke-linecap="round" stroke-linejoin="round"/>
</svg>
