<svg width="40" height="40" viewBox="0 0 40 40" fill="none" xmlns="http://www.w3.org/2000/svg">
<rect width="40" height="40" rx="8" fill="white"/>
<path d="M26.355 25.087C29.882 21.622 29.882 16.063 26.355 12.598C22.828 9.13302 17.171 9.13302 13.645 12.598C10.119 16.063 10.118 21.622 13.645 25.087" stroke="#374151" stroke-width="1.5" stroke-linecap="round" stroke-linejoin="round"/>
<path fill-rule="evenodd" clip-rule="evenodd" d="M12.1 29H28.1H12.1Z" stroke="#374151" stroke-width="1.5" stroke-linecap="round" stroke-linejoin="round"/>
<path d="M20 14V15.25" stroke="#374151" stroke-width="1.5" stroke-linecap="round" stroke-linejoin="round"/>
<path d="M20 24V22.75" stroke="#374151" stroke-width="1.5" stroke-linecap="round" stroke-linejoin="round"/>
<path d="M22.487 17C22.422 16.024 21.617 15.25 20.625 15.25H19.255C18.285 15.25 17.5 16.036 17.5 17.005C17.5 17.81 18.048 18.512 18.828 18.708L21.171 19.296C21.952 19.492 22.499 20.194 22.499 20.999C22.499 21.969 21.713 22.754 20.744 22.754H19.374C18.38 22.754 17.575 21.978 17.511 21" stroke="#374151" stroke-width="1.5" stroke-linecap="round" stroke-linejoin="round"/>
</svg>
