<svg width="44" height="44" viewBox="0 0 44 44" fill="none" xmlns="http://www.w3.org/2000/svg">
<rect width="44" height="44" rx="8" fill="#F9FAFB"/>
<path d="M24.4907 12.25C25.4087 12.25 26.2921 12.5866 26.9757 13.1916L27.1423 13.3483L29.6516 15.8577C30.3008 16.5068 30.6874 17.3695 30.743 18.2806L30.75 18.5093V28C30.75 30.0043 29.1776 31.6413 27.1992 31.7448L27 31.75H23C22.5858 31.75 22.25 31.4142 22.25 31C22.25 30.6203 22.5322 30.3065 22.8982 30.2568L23 30.25H27C28.1909 30.25 29.1656 29.3248 29.2448 28.154L29.25 28V18.5093C29.25 17.9789 29.0627 17.4678 28.7247 17.0644L28.591 16.9183L26.0817 14.409C25.7066 14.0339 25.2127 13.805 24.6885 13.7587L24.4907 13.75H17C15.8091 13.75 14.8344 14.6752 14.7552 15.846L14.75 16V23C14.75 23.4142 14.4142 23.75 14 23.75C13.6203 23.75 13.3065 23.4678 13.2568 23.1018L13.25 23V16C13.25 13.9957 14.8224 12.3587 16.8008 12.2552L17 12.25H24.4907Z" fill="#323232"/>
<path d="M24.5 12.25C24.8797 12.25 25.1935 12.5322 25.2432 12.8982L25.25 13V16.5C25.25 17.1472 25.7419 17.6795 26.3722 17.7435L26.5 17.75H30C30.4142 17.75 30.75 18.0858 30.75 18.5C30.75 18.8797 30.4678 19.1935 30.1018 19.2432L30 19.25H26.5C25.0375 19.25 23.8416 18.1083 23.755 16.6675L23.75 16.5V13C23.75 12.5858 24.0858 12.25 24.5 12.25Z" fill="#323232"/>
<path d="M17 25.25C17.3797 25.25 17.6935 25.5322 17.7432 25.8982L17.75 26V31C17.75 31.4142 17.4142 31.75 17 31.75C16.6203 31.75 16.3065 31.4678 16.2568 31.1018L16.25 31V26C16.25 25.5858 16.5858 25.25 17 25.25Z" fill="#323232"/>
<path d="M18.4697 28.4697C18.7626 28.1768 19.2374 28.1768 19.5303 28.4697C19.7966 28.7359 19.8208 29.1526 19.6029 29.4462L19.5303 29.5303L17.5303 31.5303C17.2374 31.8232 16.7626 31.8232 16.4697 31.5303C16.2034 31.2641 16.1792 30.8474 16.3971 30.5538L16.4697 30.4697L18.4697 28.4697Z" fill="#323232"/>
<path d="M14.4697 28.4697C14.7359 28.2034 15.1526 28.1792 15.4462 28.3971L15.5303 28.4697L17.5303 30.4697C17.8232 30.7626 17.8232 31.2374 17.5303 31.5303C17.2641 31.7966 16.8474 31.8208 16.5538 31.6029L16.4697 31.5303L14.4697 29.5303C14.1768 29.2374 14.1768 28.7626 14.4697 28.4697Z" fill="#323232"/>
</svg>
