<svg width="40" height="40" viewBox="0 0 40 40" fill="none" xmlns="http://www.w3.org/2000/svg">
<rect width="40" height="40" rx="8" fill="white"/>
<path d="M15.5 11V14" stroke="#374151" stroke-width="1.5" stroke-linecap="round" stroke-linejoin="round"/>
<path d="M24.5002 11V14" stroke="#374151" stroke-width="1.5" stroke-linecap="round" stroke-linejoin="round"/>
<path d="M19.0002 29H14.0002C12.3434 29 11.0002 27.6569 11.0002 26V15.5C11.0002 13.8431 12.3434 12.5 14.0002 12.5H26.0002C27.6571 12.5 29.0002 13.8431 29.0002 15.5V17" stroke="#374151" stroke-width="1.5" stroke-linecap="round" stroke-linejoin="round"/>
<path d="M19.5004 24.0002H18.5" stroke="#374151" stroke-width="1.5" stroke-linecap="round" stroke-linejoin="round"/>
<path d="M15.5002 23.8752C15.4311 23.8752 15.3752 23.9311 15.3752 24.0002C15.3752 24.0693 15.4311 24.1253 15.5002 24.1253C15.5693 24.1253 15.6253 24.0693 15.6253 24.0002C15.6253 23.9311 15.5693 23.8752 15.5002 23.8752" stroke="#374151" stroke-width="1.5" stroke-linecap="round" stroke-linejoin="round"/>
<path d="M21 20H18.5" stroke="#374151" stroke-width="1.5" stroke-linecap="round" stroke-linejoin="round"/>
<path d="M15.5002 19.8752C15.4311 19.8752 15.3752 19.9311 15.3752 20.0002C15.3752 20.0693 15.4311 20.1253 15.5002 20.1253C15.5693 20.1253 15.6253 20.0693 15.6253 20.0002C15.6253 19.9311 15.5693 19.8752 15.5002 19.8752" stroke="#374151" stroke-width="1.5" stroke-linecap="round" stroke-linejoin="round"/>
<path fill-rule="evenodd" clip-rule="evenodd" d="M23.0001 28.5V28.094C23.0034 26.9389 23.939 26.0033 25.0941 26H27.9061C29.0612 26.0033 29.9968 26.9389 30.0001 28.094V28.5C30.0001 28.7761 29.7763 29 29.5001 29H23.5001C23.224 29 23.0001 28.7761 23.0001 28.5Z" stroke="#374151" stroke-width="1.5" stroke-linecap="round" stroke-linejoin="round"/>
<circle cx="26.4999" cy="21.75" r="2" stroke="#374151" stroke-width="1.5" stroke-linecap="round" stroke-linejoin="round"/>
</svg>
