<svg width="30" height="29" viewBox="0 0 30 29" fill="none" xmlns="http://www.w3.org/2000/svg">
<path d="M17.0001 14H7.00011C6.73489 14 6.48054 14.1054 6.293 14.2929C6.10547 14.4804 6.00011 14.7348 6.00011 15C6.00011 15.2652 6.10547 15.5196 6.293 15.7071C6.48054 15.8946 6.73489 16 7.00011 16H17.0001C17.2653 16 17.5197 15.8946 17.7072 15.7071C17.8948 15.5196 18.0001 15.2652 18.0001 15C18.0001 14.7348 17.8948 14.4804 17.7072 14.2929C17.5197 14.1054 17.2653 14 17.0001 14ZM13.0001 18H7.00011C6.73489 18 6.48054 18.1054 6.293 18.2929C6.10547 18.4804 6.00011 18.7348 6.00011 19C6.00011 19.2652 6.10547 19.5196 6.293 19.7071C6.48054 19.8946 6.73489 20 7.00011 20H13.0001C13.2653 20 13.5197 19.8946 13.7072 19.7071C13.8948 19.5196 14.0001 19.2652 14.0001 19C14.0001 18.7348 13.8948 18.4804 13.7072 18.2929C13.5197 18.1054 13.2653 18 13.0001 18ZM12.0001 7C10.6869 7 9.38653 7.25866 8.17328 7.7612C6.96002 8.26375 5.85763 9.00035 4.92904 9.92893C3.05368 11.8043 2.00011 14.3478 2.00011 17C1.99137 19.3091 2.7909 21.5485 4.26011 23.33L2.26011 25.33C2.12135 25.4706 2.02736 25.6492 1.98998 25.8432C1.95261 26.0372 1.97353 26.2379 2.05011 26.42C2.13317 26.5999 2.26781 26.7511 2.43696 26.8544C2.6061 26.9577 2.80211 27.0083 3.00011 27H12.0001C14.6523 27 17.1958 25.9464 19.0712 24.0711C20.9465 22.1957 22.0001 19.6522 22.0001 17C22.0001 14.3478 20.9465 11.8043 19.0712 9.92893C17.1958 8.05357 14.6523 7 12.0001 7ZM12.0001 25H5.41011L6.34011 24.07C6.52636 23.8826 6.6309 23.6292 6.6309 23.365C6.6309 23.1008 6.52636 22.8474 6.34011 22.66C5.0307 21.352 4.21528 19.6305 4.0328 17.7888C3.85032 15.947 4.31205 14.099 5.33934 12.5595C6.36662 11.02 7.8959 9.88436 9.66663 9.34597C11.4374 8.80759 13.34 8.8998 15.0503 9.60691C16.7607 10.314 18.173 11.5923 19.0465 13.2239C19.9201 14.8555 20.201 16.7395 19.8412 18.555C19.4815 20.3705 18.5034 22.005 17.0736 23.1802C15.6439 24.3554 13.8509 24.9985 12.0001 25Z" fill="#8798AD"/>
<!-- <circle cx="22" cy="8" r="8" fill="#2454FF"/>
<path d="M22.3253 3.27273H20.821L18.652 4.66619V6.11506L20.6932 4.81108H20.7443V12H22.3253V3.27273Z" fill="white"/> -->
</svg>
