<svg width="40" height="40" viewBox="0 0 40 40" fill="none" xmlns="http://www.w3.org/2000/svg">
<path d="M22.0002 28C21.5281 28.6295 20.7871 29 20.0002 29C19.2134 29 18.4724 28.6295 18.0002 28" stroke="#323232" stroke-width="1.5" stroke-linecap="round" stroke-linejoin="round"/>
<path d="M13.9999 20.4817V17C13.9999 13.6863 16.6862 11 19.9999 11V11C21.5912 11 23.1174 11.6321 24.2426 12.7574C25.3678 13.8826 25.9999 15.4087 25.9999 17V20.4817H25.9954L27.3714 21.8588C27.9812 22.4691 28.1634 23.3866 27.833 24.1836C27.5026 24.9806 26.7247 25.5002 25.8619 25.5H14.1379C13.2752 25.5002 12.4972 24.9806 12.1668 24.1836C11.8364 23.3866 12.0186 22.4691 12.6285 21.8588L14.0045 20.4817" stroke="#323232" stroke-width="1.5" stroke-linecap="round" stroke-linejoin="round"/>
</svg>
