<svg width="34" height="34" viewBox="0 0 34 34" fill="none" xmlns="http://www.w3.org/2000/svg">
<circle cx="17" cy="17" r="14.5" stroke="white" stroke-width="5"/>
<mask id="path-2-outside-1" maskUnits="userSpaceOnUse" x="5.4917" y="5" width="24" height="24" fill="black">
<rect fill="white" x="5.4917" y="5" width="24" height="24"/>
<path d="M10.4917 19.5769C10.9601 20.7598 11.7419 21.7927 12.7533 22.5646C13.7647 23.3365 14.9673 23.8181 16.2319 23.9577C17.4965 24.0973 18.7754 23.8896 19.9308 23.357C21.0862 22.8243 22.0745 21.9869 22.7897 20.9346C23.5048 19.8823 23.9196 18.655 23.9895 17.3846C24.0594 16.1143 23.7819 14.8489 23.1865 13.7245C22.5912 12.6001 21.7006 11.6592 20.6106 11.003C19.5206 10.3468 18.2724 10 17.0001 10"/>
</mask>
<path d="M5.84282 21.4175C6.64567 23.4453 7.98596 25.216 9.71988 26.5393L15.7867 18.5899C15.4978 18.3694 15.2744 18.0744 15.1406 17.7363L5.84282 21.4175ZM9.71988 26.5393C11.4537 27.8625 13.5153 28.6882 15.6833 28.9275L16.7806 18.9879C16.4193 18.948 16.0757 18.8104 15.7867 18.5899L9.71988 26.5393ZM15.6833 28.9275C17.8511 29.1669 20.0434 28.8108 22.0241 27.8977L17.8375 18.8163C17.5074 18.9685 17.1419 19.0278 16.7806 18.9879L15.6833 28.9275ZM22.0241 27.8977C24.0049 26.9845 25.6992 25.5488 26.9251 23.745L18.6543 18.1242C18.4499 18.4249 18.1675 18.6641 17.8375 18.8163L22.0241 27.8977ZM26.9251 23.745C28.1511 21.941 28.8621 19.8371 28.9819 17.6594L18.9971 17.1099C18.9771 17.4729 18.8586 17.8236 18.6543 18.1242L26.9251 23.745ZM28.9819 17.6594C29.1018 15.4819 28.626 13.3126 27.6054 11.3848L18.7677 16.0641C18.9377 16.3852 19.017 16.7467 18.9971 17.1099L28.9819 17.6594ZM27.6054 11.3848C26.5847 9.45714 25.0579 7.84427 23.1895 6.7194L18.0317 15.2866C18.3432 15.4742 18.5977 15.743 18.7677 16.0641L27.6054 11.3848ZM23.1895 6.7194C21.321 5.59447 19.1812 5 17.0001 5V15C17.3636 15 17.7202 15.0991 18.0317 15.2866L23.1895 6.7194Z" fill="#FF5964" mask="url(#path-2-outside-1)"/>
</svg>
