<svg width="32" height="32" viewBox="0 0 32 32" fill="none" xmlns="http://www.w3.org/2000/svg">
<path d="M8.99724 1.30624C13.0458 -0.279115 17.5302 -0.426023 21.6771 0.890854C25.824 2.20773 29.3735 4.90584 31.7135 8.51991C31.8413 8.71486 31.9288 8.93264 31.971 9.16083C32.0132 9.38902 32.0093 9.62315 31.9594 9.84984C31.9096 10.0765 31.8148 10.2914 31.6805 10.482C31.5462 10.6727 31.375 10.8355 31.1767 10.9612C30.9784 11.0868 30.7569 11.1729 30.5247 11.2143C30.2926 11.2558 30.0545 11.252 29.8239 11.203C29.5932 11.154 29.3747 11.0608 29.1807 10.9288C28.9868 10.7967 28.8211 10.6284 28.6933 10.4335C27.3356 8.34818 25.4702 6.62871 23.266 5.4308C21.0618 4.23289 18.5885 3.59437 16.07 3.57307C13.5515 3.55176 11.0674 4.14835 8.84257 5.3088C6.61775 6.46924 4.72252 8.1569 3.32849 10.2189C3.12661 10.524 2.83247 10.7592 2.4875 10.8913C2.14253 11.0234 1.7641 11.0458 1.40549 10.9554C1.20674 10.9067 1.01744 10.8264 0.845099 10.7176C0.640658 10.5945 0.463804 10.4318 0.325273 10.2394C0.186742 10.0471 0.0894222 9.82901 0.0392222 9.59854C-0.0109779 9.36806 -0.0130115 9.12996 0.0332449 8.89869C0.0795012 8.66742 0.173083 8.4478 0.308309 8.25317C2.41317 5.11796 5.44598 2.69318 8.99724 1.30624Z" fill="url(#paint0_linear)"/>
<path d="M4.73214 23.1387C4.93188 23.0145 5.15489 22.931 5.388 22.893C5.62112 22.8549 5.85962 22.8632 6.08943 22.9172C6.31925 22.9713 6.53573 23.07 6.72609 23.2077C6.91646 23.3453 7.07687 23.519 7.19784 23.7185C8.0053 25.0293 9.10601 26.1419 10.4164 26.9718C11.7267 27.8018 13.2122 28.3272 14.7601 28.5083C14.9925 28.5357 15.2171 28.6079 15.4211 28.7206C15.6252 28.8334 15.8046 28.9845 15.9492 29.1655C16.0938 29.3464 16.2008 29.5535 16.2639 29.7751C16.3271 29.9966 16.3453 30.2282 16.3174 30.4567C16.2895 30.6852 16.2161 30.906 16.1014 31.1065C15.9867 31.3071 15.833 31.4835 15.6489 31.6257C15.4649 31.7678 15.2541 31.8729 15.0288 31.935C14.8034 31.9971 14.5678 32.015 14.3354 31.9876C12.2517 31.7474 10.251 31.044 8.48497 29.9308C6.7189 28.8176 5.23381 27.3238 4.14226 25.5625C4.016 25.3662 3.93102 25.147 3.89234 24.9178C3.85366 24.6886 3.86206 24.4542 3.91704 24.2283C3.97202 24.0023 4.07247 23.7895 4.21246 23.6024C4.35245 23.4153 4.52916 23.2576 4.73214 23.1387Z" fill="url(#paint1_linear)"/>
<path d="M13.2859 4.9941C14.1607 4.82852 15.0495 4.74503 15.9403 4.74475C19.618 4.75396 23.1421 6.1958 25.7404 8.7544C28.3387 11.313 29.7994 14.7797 29.8025 18.395C29.8016 18.8929 29.7741 19.3903 29.7199 19.8853C29.6773 20.317 29.4722 20.7174 29.1448 21.0081C28.8175 21.2988 28.3914 21.4588 27.9503 21.4568L27.7379 21.451C27.5028 21.4287 27.2747 21.3604 27.0668 21.2501C26.859 21.1397 26.6758 20.9896 26.5279 20.8086C26.38 20.6276 26.2705 20.4193 26.2058 20.196C26.1411 19.9727 26.1225 19.7389 26.1512 19.5084C26.3253 17.9324 26.1212 16.3381 25.5552 14.8537C24.9893 13.3692 24.0772 12.0358 22.8922 10.9606C21.7072 9.88531 20.2822 9.0981 18.7318 8.66213C17.1813 8.22616 15.5484 8.15356 13.9642 8.45016C11.6158 8.89843 9.49923 10.1359 7.9774 11.9504C6.45556 13.7649 5.6233 16.0433 5.62334 18.395C5.62334 18.5574 5.62334 18.7198 5.62334 18.8821C5.63684 19.1135 5.6032 19.3451 5.52438 19.5635C5.44556 19.7819 5.32316 19.9826 5.16435 20.1538C5.00555 20.325 4.81355 20.4634 4.59962 20.5607C4.3857 20.6579 4.15416 20.7122 3.91859 20.7204H3.8419C3.38261 20.7206 2.94121 20.5453 2.61098 20.2315C2.28076 19.9177 2.08758 19.49 2.07227 19.0387C2.07227 18.8242 2.07227 18.6038 2.07227 18.3892C2.07339 15.2251 3.19218 12.1596 5.23745 9.71643C7.28273 7.27326 10.1276 5.60408 13.2859 4.9941Z" fill="url(#paint2_linear)"/>
<path d="M17.1677 22.3442C16.7649 22.4682 16.3451 22.5308 15.923 22.5298C15.0355 22.5288 14.1711 22.2522 13.453 21.7396C12.7349 21.2269 12.1999 20.5044 11.9243 19.6751C11.6487 18.8458 11.6467 17.9521 11.9185 17.1216C12.1902 16.2911 12.7219 15.5662 13.4376 15.0504C14.1534 14.5346 15.0165 14.2542 15.904 14.2492C16.7915 14.2443 17.6578 14.515 18.3794 15.0228C19.1011 15.5307 19.6411 16.2496 19.9224 17.077C20.2037 17.9044 20.212 18.7981 19.946 19.6304C19.8424 19.9588 19.8315 20.3088 19.9146 20.6428C19.9978 20.9768 20.1717 21.2823 20.4179 21.5266C20.6172 21.7311 20.8604 21.8893 21.1298 21.9897C21.3992 22.09 21.6881 22.1299 21.9752 22.1065C22.1517 22.0891 22.3295 22.0891 22.5061 22.1065C23.0001 22.1538 23.4702 22.3382 23.8617 22.6381C24.2532 22.938 24.55 23.3411 24.7174 23.8004C24.8848 24.2598 24.916 24.7564 24.8074 25.2325C24.6988 25.7086 24.4548 26.1445 24.1038 26.4895C23.7528 26.8345 23.3094 27.0744 22.8251 27.1812C22.3408 27.288 21.8356 27.2573 21.3683 27.0927C20.9011 26.9281 20.491 26.6364 20.186 26.2515C19.8809 25.8667 19.6933 25.4045 19.6451 24.9189C19.6274 24.7453 19.6274 24.5705 19.6451 24.397C19.6703 24.1146 19.6303 23.8303 19.5281 23.5653C19.426 23.3002 19.2644 23.0613 19.0553 22.8661C18.8179 22.6196 18.5171 22.4409 18.1847 22.3491C17.8524 22.2572 17.5009 22.2555 17.1677 22.3442Z" fill="url(#paint3_linear)"/>
<path d="M19.0254 26.7453C17.4865 27.2938 15.825 27.4217 14.218 27.1154C12.611 26.809 11.1187 26.0799 9.89992 25.0056C8.67527 23.9283 7.77243 22.5432 7.28844 20.9993C6.80444 19.4554 6.75759 17.811 7.15292 16.2429C7.54825 14.6748 8.37082 13.2423 9.5322 12.0992C10.6936 10.9562 12.1499 10.1459 13.7446 9.75539C15.3393 9.36491 17.0121 9.40902 18.5832 9.88298C20.1543 10.3569 21.5643 11.2428 22.6617 12.4454C23.7591 13.648 24.5023 15.1219 24.8116 16.7086C25.1208 18.2953 24.9844 19.9348 24.4169 21.451C23.8895 21.0992 23.2813 20.882 22.6472 20.8189H22.2756C22.134 20.8189 21.9984 20.8189 21.8568 20.8189H21.8037C21.6226 20.8143 21.4508 20.7392 21.3259 20.6102C21.2408 20.5258 21.1813 20.4198 21.1542 20.304C21.1272 20.1882 21.1335 20.0673 21.1725 19.9549C21.3456 19.4012 21.4253 18.8233 21.4085 18.2443C21.3646 16.8926 20.8063 15.6063 19.844 14.6399C18.8816 13.6735 17.5854 13.0973 16.2116 13.0254H15.9403C15.1964 12.9838 14.4517 13.0918 13.7519 13.343C13.052 13.5942 12.4116 13.9832 11.87 14.4862C11.3284 14.9892 10.8969 15.5955 10.6021 16.2682C10.3072 16.9408 10.1551 17.6655 10.1551 18.3979C10.1551 19.1304 10.3072 19.8551 10.6021 20.5277C10.8969 21.2004 11.3284 21.8067 11.87 22.3097C12.4116 22.8127 13.052 23.2017 13.7519 23.4529C14.4517 23.704 15.1964 23.8121 15.9403 23.7705C16.488 23.7699 17.0326 23.6898 17.5566 23.5327C17.617 23.5114 17.6811 23.5016 17.7453 23.5038C17.8307 23.5034 17.9152 23.5196 17.9942 23.5515C18.0731 23.5833 18.1449 23.6302 18.2054 23.6893C18.2763 23.7564 18.3314 23.8378 18.3671 23.9279C18.4027 24.018 18.418 24.1147 18.4119 24.2112C18.3853 24.4696 18.3853 24.7299 18.4119 24.9882C18.4641 25.6151 18.675 26.2191 19.0254 26.7453Z" fill="url(#paint4_linear)"/>
<defs>
<linearGradient id="paint0_linear" x1="37.8129" y1="30.4972" x2="10.3828" y2="2.59991" gradientUnits="userSpaceOnUse">
<stop stop-color="#0084FF"/>
<stop offset="1" stop-color="#0040BF"/>
</linearGradient>
<linearGradient id="paint1_linear" x1="539.842" y1="695.517" x2="127.96" y2="133.369" gradientUnits="userSpaceOnUse">
<stop stop-color="#0084FF"/>
<stop offset="1" stop-color="#0040BF"/>
</linearGradient>
<linearGradient id="paint2_linear" x1="1605.99" y1="988.083" x2="906.908" y2="-171.9" gradientUnits="userSpaceOnUse">
<stop stop-color="#0084FF"/>
<stop offset="1" stop-color="#0040BF"/>
</linearGradient>
<linearGradient id="paint3_linear" x1="747.858" y1="803.274" x2="133.136" y2="180.967" gradientUnits="userSpaceOnUse">
<stop stop-color="#0084FF"/>
<stop offset="1" stop-color="#0040BF"/>
</linearGradient>
<linearGradient id="paint4_linear" x1="1018.96" y1="1089.47" x2="177.614" y2="233.957" gradientUnits="userSpaceOnUse">
<stop stop-color="#0084FF"/>
<stop offset="1" stop-color="#0040BF"/>
</linearGradient>
</defs>
</svg>
